<?xml version="1.0" encoding="utf-8"?>
<!-- Generator: Adobe Illustrator 19.1.0, SVG Export Plug-In . SVG Version: 6.00 Build 0)  -->
<svg version="1.1" id="Layer_1" xmlns="http://www.w3.org/2000/svg" xmlns:xlink="http://www.w3.org/1999/xlink" x="0px" y="0px"
	 viewBox="0 0 921 170" style="enable-background:new 0 0 921 170;" xml:space="preserve">
<style type="text/css">
	.st0{fill:#2A2A2A;}
</style>
<g>
	<rect x="700.1" y="40.8" class="st0" width="19" height="93.2"/>
	<rect x="724.2" y="117" class="st0" width="57.1" height="17"/>
	<rect x="795.8" y="40.8" class="st0" width="19" height="93.2"/>
	<rect x="819.8" y="117" class="st0" width="57.1" height="17"/>
	<polygon class="st0" points="628.7,43.4 625.1,40.9 565.3,126.3 579.3,136 628.8,65.4 678.2,136 692.2,126.3 632.4,40.9 	"/>
</g>
<g>
	<rect x="46.7" y="40.8" class="st0" width="19" height="93.2"/>
	<rect x="147.9" y="40.8" class="st0" width="19" height="93.2"/>
	<rect x="505.4" y="62.4" class="st0" width="19" height="71.6"/>
	<rect x="68.9" y="40.8" class="st0" width="63" height="17"/>
	<rect x="174" y="40.8" class="st0" width="52.1" height="17"/>
	<rect x="465.9" y="40.8" class="st0" width="98.2" height="17"/>
	
		<rect x="171.8" y="99.5" transform="matrix(-0.7071 -0.7071 0.7071 -0.7071 265.1989 325.8681)" class="st0" width="56.5" height="17"/>
	<polygon class="st0" points="300.1,43.4 296.5,40.9 236.7,126.3 250.7,136 300.1,65.4 349.6,136 363.5,126.3 303.8,40.9 	"/>
	<rect x="68.9" y="78.9" class="st0" width="63" height="17"/>
	<polygon class="st0" points="449.9,55.8 441.4,41.1 395.1,67.8 395.1,40.8 376,40.8 376,77 376,78.8 376,96.2 376,98 376,134 
		395.1,134 395.1,107.2 441.4,133.9 449.9,119.2 395.1,87.5 395.1,87.5 	"/>
</g>
</svg>
