<?xml version="1.0" encoding="utf-8"?>
<!-- Generator: Adobe Illustrator 19.1.0, SVG Export Plug-In . SVG Version: 6.00 Build 0)  -->
<svg version="1.1" id="Layer_1" xmlns="http://www.w3.org/2000/svg" xmlns:xlink="http://www.w3.org/1999/xlink" x="0px" y="0px"
	 viewBox="0 0 512 502" style="enable-background:new 0 0 512 502;" xml:space="preserve">
<style type="text/css">
	.st0{fill:#FFFFFF;}
</style>
<g>
	<path class="st0" d="M442,250.8h-16c0,92.6-75.4,168-168,168s-168-75.4-168-168c0-85.6,64.4-156.3,147.3-166.6l-16.9,16.9
		l11.3,11.3l37.7-37.7l-37.7-37.7l-11.3,11.3l19.3,19.3C146.8,77,74,155.6,74,250.8c0,101.5,82.5,184,184,184S442,352.3,442,250.8
		L442,250.8z M442,250.8"/>
	<path class="st0" d="M201.8,9.1L217.4,6l3.1,15.7l-15.7,3.1L201.8,9.1z M201.8,9.1"/>
	<path class="st0" d="M155.7,24.7l14.8-6.1l6.1,14.8l-14.8,6.1L155.7,24.7z M155.7,24.7"/>
	<path class="st0" d="M113.6,49l13.3-8.9l8.9,13.3l-13.3,8.9L113.6,49z M113.6,49"/>
	<path class="st0" d="M77,81.1l11.3-11.3l11.3,11.3L88.3,92.4L77,81.1z M77,81.1"/>
	<path class="st0" d="M234,146.8v8.6c-27.1,3.9-48,27.3-48,55.4v8c0,30.9,25.1,56,56,56h32c4.4,0,8,3.6,8,8v8c0,4.4-3.6,8-8,8h-32
		c-4.4,0-8-3.6-8-8v-8h-48v8c0,28.2,20.9,51.5,48,55.4v8.6c0,13.2,10.8,24,24,24c13.2,0,24-10.8,24-24v-8.6
		c27.1-3.9,48-27.3,48-55.4v-8c0-30.9-25.1-56-56-56h-32c-4.4,0-8-3.6-8-8v-8c0-4.4,3.6-8,8-8h32c4.4,0,8,3.6,8,8v8h48v-8
		c0-28.2-20.9-51.5-48-55.4v-8.6c0-13.2-10.8-24-24-24C244.8,122.8,234,133.6,234,146.8L234,146.8z M234,146.8"/>
	<path class="st0" d="M78.4,103.9L66.1,93.7C29.9,137.9,10,193.7,10,250.8c0,61.1,22.4,119.8,63.2,165.3l11.9-10.7
		C47,362.9,26,308,26,250.8C26,197.3,44.6,145.2,78.4,103.9L78.4,103.9z M78.4,103.9"/>
	<path class="st0" d="M295.4,479.9l15.7-3.1l3.1,15.7l-15.7,3.1L295.4,479.9z M295.4,479.9"/>
	<path class="st0" d="M339.4,468.2l14.8-6.1l6.1,14.8l-14.8,6.1L339.4,468.2z M339.4,468.2"/>
	<path class="st0" d="M380.2,448.1l13.3-8.9l8.9,13.3l-13.3,8.9L380.2,448.1z M380.2,448.1"/>
	<path class="st0" d="M416.4,420.5l11.3-11.3l11.3,11.3l-11.3,11.3L416.4,420.5z M416.4,420.5"/>
	<path class="st0" d="M442.8,85.5l-11.9,10.7C469,138.7,490,193.6,490,250.8c0,53.5-18.6,105.6-52.4,146.9l12.4,10.1
		C486.1,363.7,506,308,506,250.8C506,189.7,483.6,131,442.8,85.5L442.8,85.5z M442.8,85.5"/>
</g>
</svg>
